<svg width="40" height="40" viewBox="0 0 40 40" fill="none" xmlns="http://www.w3.org/2000/svg">
<path fill-rule="evenodd" clip-rule="evenodd" d="M33.1296 13.9106L19.5648 6L6 13.9106L11.0671 16.877L6.07443 19.7886L11.4649 22.9444L6.07443 26.0879L19.5893 34L33.1042 26.0879L27.7138 22.9444L33.1042 19.7886L28.0869 16.8627L33.1296 13.9106ZM24.5938 24.771L19.5893 27.7007L14.585 24.771L12.3182 26.0931L19.5897 30.3493L26.8612 26.0931L24.5938 24.771ZM12.3182 19.7938L14.1873 18.7037L19.5648 21.8518L24.9669 18.6893L26.8612 19.7938L19.5897 24.0501L12.3182 19.7938ZM12.2426 13.9145L19.5645 9.64565L26.8885 13.9145L19.5645 18.2022L12.2426 13.9145Z" fill="#5783C3"/>
</svg>
